<?xml version="1.0" standalone="no"?>
<svg width="567.429" height="355.068" viewBox="0 0 567.429 355.068" xmlns="http://www.w3.org/2000/svg" shape-rendering="crispEdges">
<title>
C:/data/projects/ph/ranbox/u.svg
</title>
<desc>
Creator: ROOT Version 6.24/06
CreationDate: Mon Dec  6 08:54:59 2021</desc>
<defs>
</defs>
<rect x="0.5" y="0" width="566.929" height="354.568" fill="white"/>
<rect x="57.1929" y="35.4568" width="453.543" height="283.654" fill="white"/>
<rect x="57.1929" y="35.4568" width="453.543" height="283.654" fill="none" stroke="black"/>
<rect x="57.1929" y="35.4568" width="453.543" height="283.654" fill="white"/>
<rect x="57.1929" y="35.4568" width="453.543" height="283.654" fill="none" stroke="black"/>
<path d="M57.1929,319.111h 453.543" fill="none" stroke="black"/>
<path d="M57.1929,310.601v 8.50962" fill="none" stroke="black"/>
<path d="M73.7215,314.856v 4.25481" fill="none" stroke="black"/>
<path d="M90.25,314.856v 4.25481" fill="none" stroke="black"/>
<path d="M106.779,314.856v 4.25481" fill="none" stroke="black"/>
<path d="M123.307,314.856v 4.25481" fill="none" stroke="black"/>
<path d="M139.836,310.601v 8.50962" fill="none" stroke="black"/>
<path d="M156.364,314.856v 4.25481" fill="none" stroke="black"/>
<path d="M172.893,314.856v 4.25481" fill="none" stroke="black"/>
<path d="M189.421,314.856v 4.25481" fill="none" stroke="black"/>
<path d="M205.95,314.856v 4.25481" fill="none" stroke="black"/>
<path d="M222.478,310.601v 8.50962" fill="none" stroke="black"/>
<path d="M239.007,314.856v 4.25481" fill="none" stroke="black"/>
<path d="M255.535,314.856v 4.25481" fill="none" stroke="black"/>
<path d="M272.064,314.856v 4.25481" fill="none" stroke="black"/>
<path d="M288.593,314.856v 4.25481" fill="none" stroke="black"/>
<path d="M305.121,310.601v 8.50962" fill="none" stroke="black"/>
<path d="M321.65,314.856v 4.25481" fill="none" stroke="black"/>
<path d="M338.178,314.856v 4.25481" fill="none" stroke="black"/>
<path d="M354.707,314.856v 4.25481" fill="none" stroke="black"/>
<path d="M371.235,314.856v 4.25481" fill="none" stroke="black"/>
<path d="M387.764,310.601v 8.50962" fill="none" stroke="black"/>
<path d="M404.292,314.856v 4.25481" fill="none" stroke="black"/>
<path d="M420.821,314.856v 4.25481" fill="none" stroke="black"/>
<path d="M437.349,314.856v 4.25481" fill="none" stroke="black"/>
<path d="M453.878,314.856v 4.25481" fill="none" stroke="black"/>
<path d="M470.407,310.601v 8.50962" fill="none" stroke="black"/>
<path d="M470.407,310.601v 8.50962" fill="none" stroke="black"/>
<path d="M486.935,314.856v 4.25481" fill="none" stroke="black"/>
<path d="M503.464,314.856v 4.25481" fill="none" stroke="black"/>
<text xml:space="preserve" x="52.6423" y="329.919" fill="black" font-size="11.8852" font-family="Helvetica">0</text>
<text xml:space="preserve" x="129.434" y="329.919" fill="black" font-size="11.8852" font-family="Helvetica">100</text>
<text xml:space="preserve" x="212.861" y="329.919" fill="black" font-size="11.8852" font-family="Helvetica">200</text>
<text xml:space="preserve" x="295.341" y="329.919" fill="black" font-size="11.8852" font-family="Helvetica">300</text>
<text xml:space="preserve" x="377.821" y="329.919" fill="black" font-size="11.8852" font-family="Helvetica">400</text>
<text xml:space="preserve" x="460.3" y="329.919" fill="black" font-size="11.8852" font-family="Helvetica">500</text>
<text xml:space="preserve" x="484.001" y="342.243" fill="black" font-size="11.8852" font-family="Helvetica">Nexp</text>
<path d="M57.1929,319.111v -283.654" fill="none" stroke="black"/>
<path d="M70.7992,267.806h -13.6063" fill="none" stroke="black"/>
<path d="M63.9961,257.451h -6.80315" fill="none" stroke="black"/>
<path d="M63.9961,247.097h -6.80315" fill="none" stroke="black"/>
<path d="M63.9961,236.743h -6.80315" fill="none" stroke="black"/>
<path d="M63.9961,226.389h -6.80315" fill="none" stroke="black"/>
<path d="M70.7992,216.035h -13.6063" fill="none" stroke="black"/>
<path d="M63.9961,205.68h -6.80315" fill="none" stroke="black"/>
<path d="M63.9961,195.326h -6.80315" fill="none" stroke="black"/>
<path d="M63.9961,184.972h -6.80315" fill="none" stroke="black"/>
<path d="M63.9961,174.618h -6.80315" fill="none" stroke="black"/>
<path d="M70.7992,164.263h -13.6063" fill="none" stroke="black"/>
<path d="M63.9961,153.909h -6.80315" fill="none" stroke="black"/>
<path d="M63.9961,143.555h -6.80315" fill="none" stroke="black"/>
<path d="M63.9961,133.201h -6.80315" fill="none" stroke="black"/>
<path d="M63.9961,122.846h -6.80315" fill="none" stroke="black"/>
<path d="M70.7992,112.492h -13.6063" fill="none" stroke="black"/>
<path d="M63.9961,102.138h -6.80315" fill="none" stroke="black"/>
<path d="M63.9961,91.7838h -6.80315" fill="none" stroke="black"/>
<path d="M63.9961,81.4296h -6.80315" fill="none" stroke="black"/>
<path d="M63.9961,71.0753h -6.80315" fill="none" stroke="black"/>
<path d="M70.7992,60.7211h -13.6063" fill="none" stroke="black"/>
<path d="M70.7992,267.806h -13.6063" fill="none" stroke="black"/>
<path d="M63.9961,278.16h -6.80315" fill="none" stroke="black"/>
<path d="M63.9961,288.514h -6.80315" fill="none" stroke="black"/>
<path d="M63.9961,298.868h -6.80315" fill="none" stroke="black"/>
<path d="M63.9961,309.223h -6.80315" fill="none" stroke="black"/>
<path d="M70.7992,60.7211h -13.6063" fill="none" stroke="black"/>
<path d="M63.9961,50.3669h -6.80315" fill="none" stroke="black"/>
<path d="M63.9961,40.0126h -6.80315" fill="none" stroke="black"/>
<text xml:space="preserve" x="34.6295" y="272.088" fill="black" font-size="11.8852" font-family="Helvetica">100</text>
<text xml:space="preserve" x="34.6295" y="219.946" fill="black" font-size="11.8852" font-family="Helvetica">200</text>
<text xml:space="preserve" x="34.6295" y="168.751" fill="black" font-size="11.8852" font-family="Helvetica">300</text>
<text xml:space="preserve" x="34.6295" y="116.609" fill="black" font-size="11.8852" font-family="Helvetica">400</text>
<text xml:space="preserve" x="34.6295" y="65.4149" fill="black" font-size="11.8852" font-family="Helvetica">500</text>
<path d="M58.0193,319.059l 0.826427, -0.517712l 0.826427, -0.517712l 0.826427, -0.517712l 0.826427, -0.517712l 0.826427, -0.517712l 0.826427, -0.517712l 0.826427, -0.517712l 0.826427, -0.517712l 0.826427, -0.517712l 0.826427, -0.517712l 0.826427,
 -0.517712l 0.826427, -0.517712l 0.826427, -0.517712l 0.826427, -0.517712l 0.826427, -0.517712l 0.826427, -0.517712l 0.826427, -0.517712l 0.826427, -0.517712l 0.826427, -0.517712l 0.826427, -0.517712l 0.826427, -0.517712l 0.826427, -0.517712l
 0.826427, -0.517712l 0.826427, -0.517712l 0.826427, -0.517712l 0.826427, -0.517712l 0.826427, -0.517712l 0.826427, -0.517712l 0.826427, -0.517712l 0.826427, -0.517712l 0.826427, -0.517712l 0.826427, -0.517712l 0.826427, -0.517712l 0.826427,
 -0.517712l 0.826427, -0.517712l 0.826427, -0.517712l 0.826427, -0.517712l 0.826427, -0.517712l 0.826427, -0.517712l 0.826427, -0.517712l 0.826427, -0.517712l 0.826427, -0.517712l 0.826427, -0.517712l 0.826427, -0.517712l 0.826427, -0.517712l
 0.826427, -0.517712l 0.826427, -0.517712l 0.826427, -0.517712l 0.826427, -0.517712l 0.826427, -0.517712l 0.826427, -0.517712l 0.826427, -0.517712l 0.826427, -0.517712l 0.826427, -0.517712l 0.826427, -0.517712l 0.826427, -0.517712l 0.826427,
 -0.517712l 0.826427, -0.517712l 0.826427, -0.517712l 0.826427, -0.517712l 0.826427, -0.517712l 0.826427, -0.517712l 0.826427, -0.517712l 0.826427, -0.517712l 0.826427, -0.517712l 0.826427, -0.517712l 0.826427, -0.517712l 0.826427, -0.517712l
 0.826427, -0.517712l 0.826427, -0.517712l 0.826427, -0.517712l 0.826427, -0.517712l 0.826427, -0.517712l 0.826427, -0.517712l 0.826427, -0.517712l 0.826427, -0.517712l 0.826427, -0.517712l 0.826427, -0.517712l 0.826427, -0.517712l 0.826427,
 -0.517712l 0.826427, -0.517712l 0.826427, -0.517712l 0.826427, -0.517712l 0.826427, -0.517712l 0.826427, -0.517712l 0.826427, -0.517712l 0.826427, -0.517712l 0.826427, -0.517712l 0.826427, -0.517712l 0.826427, -0.517712l 0.826427, -0.517712l
 0.826427, -0.517712l 0.826427, -0.517712l 0.826427, -0.517712l 0.826427, -0.517712l 0.826427, -0.517712l 0.826427, -0.517712l 0.826427, -0.517712l 0.826427, -0.517712l 0.826427, -0.517712l 0.826427, -0.517712l 0.826427, -0.517712l 0.826427,
 -0.517712l 0.826427, -0.517712l 0.826427, -0.517712l 0.826427, -0.517712l 0.826427, -0.517712l 0.826427, -0.517712l 0.826427, -0.517712l 0.826427, -0.517712l 0.826427, -0.517712l 0.826427, -0.517712l 0.826427, -0.517712l 0.826427, -0.517712l
 0.826427, -0.517712l 0.826427, -0.517712l 0.826427, -0.517712l 0.826427, -0.517712l 0.826427, -0.517712l 0.826427, -0.517712l 0.826427, -0.517712l 0.826427, -0.517712l 0.826427, -0.517712l 0.826427, -0.517712l 0.826427, -0.517712l 0.826427,
 -0.517712l 0.826427, -0.517712l 0.826427, -0.517712l 0.826427, -0.517712l 0.826427, -0.517712l 0.826427, -0.517712l 0.826427, -0.517712l 0.826427, -0.517712l 0.826427, -0.517712l 0.826427, -0.517712l 0.826427, -0.517712l 0.826427, -0.517712l
 0.826427, -0.517712l 0.826427, -0.517712l 0.826427, -0.517712l 0.826427, -0.517712l 0.826427, -0.517712l 0.826427, -0.517712l 0.826427, -0.517712l 0.826427, -0.517712l 0.826427, -0.517712l 0.826427, -0.517712l 0.826427, -0.517712l 0.826427,
 -0.517712l 0.826427, -0.517712l 0.826427, -0.517712l 0.826427, -0.517712l 0.826427, -0.517712l 0.826427, -0.517712l 0.826427, -0.517712l 0.826427, -0.517712l 0.826427, -0.517712l 0.826427, -0.517712l 0.826427, -0.517712l 0.826427, -0.517712l
 0.826427, -0.517712l 0.826427, -0.517712l 0.826427, -0.517712l 0.826427, -0.517712l 0.826427, -0.517712l 0.826427, -0.517712l 0.826427, -0.517712l 0.826427, -0.517712l 0.826427, -0.517712l 0.826427, -0.517712l 0.826427, -0.517712l 0.826427,
 -0.517712l 0.826427, -0.517712l 0.826427, -0.517712l 0.826427, -0.517712l 0.826427, -0.517712l 0.826427, -0.517712l 0.826427, -0.517712l 0.826427, -0.517712l 0.826427, -0.517712l 0.826427, -0.517712l 0.826427, -0.517712l 0.826427, -0.517712l
 0.826427, -0.517712l 0.826427, -0.517712l 0.826427, -0.517712l 0.826427, -0.517712l 0.826427, -0.517712l 0.826427, -0.517712l 0.826427, -0.517712l 0.826427, -0.517712l 0.826427, -0.517712l 0.826427, -0.517712l 0.826427, -0.517712l 0.826427,
 -0.517712l 0.826427, -0.517712l 0.826427, -0.517712l 0.826427, -0.517712l 0.826427, -0.517712l 0.826427, -0.517712l 0.826427, -0.517712l 0.826427, -0.517712l 0.826427, -0.517712l 0.826427, -0.517712l 0.826427, -0.517712l 0.826427, -0.517712l
 0.826427, -0.517712l 0.826427, -0.517712l 0.826427, -0.517712l 0.826427, -0.517712l 0.826427, -0.517712l 0.826427, -0.517712l 0.826427, -0.517712l 0.826427, -0.517712l 0.826427, -0.517712l 0.826427, -0.517712l 0.826427, -0.517712l 0.826427,
 -0.517712l 0.826427, -0.517712l 0.826427, -0.517712l 0.826427, -0.517712l 0.826427, -0.517712l 0.826427, -0.517712l 0.826427, -0.517712l 0.826427, -0.517712l 0.826427, -0.517712l 0.826427, -0.517712l 0.826427, -0.517712l 0.826427, -0.517712l
 0.826427, -0.517712l 0.826427, -0.517712l 0.826427, -0.517712l 0.826427, -0.517712l 0.826427, -0.517712l 0.826427, -0.517712l 0.826427, -0.517712l 0.826427, -0.517712l 0.826427, -0.517712l 0.826427, -0.517712l 0.826427, -0.517712l 0.826427,
 -0.517712l 0.826427, -0.517712l 0.826427, -0.517712l 0.826427, -0.517712l 0.826427, -0.517712l 0.826427, -0.517712l 0.826427, -0.517712l 0.826427, -0.517712l 0.826427, -0.517712l 0.826427, -0.517712l 0.826427, -0.517712l 0.826427, -0.517712l
 0.826427, -0.517712l 0.826427, -0.517712l 0.826427, -0.517712l 0.826427, -0.517712l 0.826427, -0.517712l 0.826427, -0.517712l 0.826427, -0.517712l 0.826427, -0.517712l 0.826427, -0.517712l 0.826427, -0.517712l 0.826427, -0.517712l 0.826427,
 -0.517712l 0.826427, -0.517712l 0.826427, -0.517712l 0.826427, -0.517712l 0.826427, -0.517712l 0.826427, -0.517712l 0.826427, -0.517712l 0.826427, -0.517712l 0.826427, -0.517712l 0.826427, -0.517712l 0.826427, -0.517712l 0.826427, -0.517712l
 0.826427, -0.517712l 0.826427, -0.517712l 0.826427, -0.517712l 0.826427, -0.517712l 0.826427, -0.517712l 0.826427, -0.517712l 0.826427, -0.517712l 0.826427, -0.517712l 0.826427, -0.517712l 0.826427, -0.517712l 0.826427, -0.517712l 0.826427,
 -0.517712l 0.826427, -0.517712l 0.826427, -0.517712l 0.826427, -0.517712l 0.826427, -0.517712l 0.826427, -0.517712l 0.826427, -0.517712l 0.826427, -0.517712l 0.826427, -0.517712l 0.826427, -0.517712l 0.826427, -0.517712l 0.826427, -0.517712l
 0.826427, -0.517712l 0.826427, -0.517712l 0.826427, -0.517712l 0.826427, -0.517712l 0.826427, -0.517712l 0.826427, -0.517712l 0.826427, -0.517712l 0.826427, -0.517712l 0.826427, -0.517712l 0.826427, -0.517712l 0.826427, -0.517712l 0.826427,
 -0.517712l 0.826427, -0.517712l 0.826427, -0.517712l 0.826427, -0.517712l 0.826427, -0.517712l 0.826427, -0.517712l 0.826427, -0.517712l 0.826427, -0.517712l 0.826427, -0.517712l 0.826427, -0.517712l 0.826427, -0.517712l 0.826427, -0.517712l
 0.826427, -0.517712l 0.826427, -0.517712l 0.826427, -0.517712l 0.826427, -0.517712l 0.826427, -0.517712l 0.826427, -0.517712l 0.826427, -0.517712l 0.826427, -0.517712l 0.826427, -0.517712l 0.826427, -0.517712l 0.826427, -0.517712l 0.826427,
 -0.517712l 0.826427, -0.517712l 0.826427, -0.517712l 0.826427, -0.517712l 0.826427, -0.517712l 0.826427, -0.517712l 0.826427, -0.517712l 0.826427, -0.517712l 0.826427, -0.517712l 0.826427, -0.517712l 0.826427, -0.517712l 0.826427, -0.517712l
 0.826427, -0.517712l 0.826427, -0.517712l 0.826427, -0.517712l 0.826427, -0.517712l 0.826427, -0.517712l 0.826427, -0.517712l 0.826427, -0.517712l 0.826427, -0.517712l 0.826427, -0.517712l 0.826427, -0.517712l 0.826427, -0.517712l 0.826427,
 -0.517712l 0.826427, -0.517712l 0.826427, -0.517712l 0.826427, -0.517712l 0.826427, -0.517712l 0.826427, -0.517712l 0.826427, -0.517712l 0.826427, -0.517712l 0.826427, -0.517712l 0.826427, -0.517712l 0.826427, -0.517712l 0.826427, -0.517712l
 0.826427, -0.517712l 0.826427, -0.517712l 0.826427, -0.517712l 0.826427, -0.517712l 0.826427, -0.517712l 0.826427, -0.517712l 0.826427, -0.517712l 0.826427, -0.517712l 0.826427, -0.517712l 0.826427, -0.517712l 0.826427, -0.517712l 0.826427,
 -0.517712l 0.826427, -0.517712l 0.826427, -0.517712l 0.826427, -0.517712l 0.826427, -0.517712l 0.826427, -0.517712l 0.826427, -0.517712l 0.826427, -0.517712l 0.826427, -0.517712l 0.826427, -0.517712l 0.826427, -0.517712l 0.826427, -0.517712l
 0.826427, -0.517712l 0.826427, -0.517712l 0.826427, -0.517712l 0.826427, -0.517712l 0.826427, -0.517712l 0.826427, -0.517712l 0.826427, -0.517712l 0.826427, -0.517712l 0.826427, -0.517712l 0.826427, -0.517712l 0.826427, -0.517712l 0.826427,
 -0.517712l 0.826427, -0.517712l 0.826427, -0.517712l 0.826427, -0.517712l 0.826427, -0.517712l 0.826427, -0.517712l 0.826427, -0.517712l 0.826427, -0.517712l 0.826427, -0.517712l 0.826427, -0.517712l 0.826427, -0.517712l 0.826427, -0.517712l
 0.826427, -0.517712l 0.826427, -0.517712l 0.826427, -0.517712l 0.826427, -0.517712l 0.826427, -0.517712l 0.826427, -0.517712l 0.826427, -0.517712l 0.826427, -0.517712l 0.826427, -0.517712l 0.826427, -0.517712l 0.826427, -0.517712l 0.826427,
 -0.517712l 0.826427, -0.517712l 0.826427, -0.517712l 0.826427, -0.517712l 0.826427, -0.517712l 0.826427, -0.517712l 0.826427, -0.517712l 0.826427, -0.517712l 0.826427, -0.517712l 0.826427, -0.517712l 0.826427, -0.517712l 0.826427, -0.517712l
 0.826427, -0.517712l 0.826427, -0.517712l 0.826427, -0.517712l 0.826427, -0.517712l 0.826427, -0.517712l 0.826427, -0.517712l 0.826427, -0.517712l 0.826427, -0.517712l 0.826427, -0.517712l 0.826427, -0.517712l 0.826427, -0.517712l 0.826427,
 -0.517712l 0.826427, -0.517712l 0.826427, -0.517712l 0.826427, -0.517712l 0.826427, -0.517712l 0.826427, -0.517712l 0.826427, -0.517712l 0.826427, -0.517712l 0.826427, -0.517712l 0.826427, -0.517712l 0.826427, -0.517712l 0.826427, -0.517712l
 0.826427, -0.517712l 0.826427, -0.517712l 0.826427, -0.517712l 0.826427, -0.517712l 0.826427, -0.517712l 0.826427, -0.517712l 0.826427, -0.517712l 0.826427, -0.517712l 0.826427, -0.517712l 0.826427, -0.517712l 0.826427, -0.517712l 0.826427,
 -0.517712l 0.826427, -0.517712l 0.826427, -0.517712l 0.826427, -0.517712l 0.826427, -0.517712l 0.826427, -0.517712l 0.826427, -0.517712l 0.826427, -0.517712l 0.826427, -0.517712l 0.826427, -0.517712l 0.826427, -0.517712l 0.826427, -0.517712l
 0.826427, -0.517712l 0.826427, -0.517712l 0.826427, -0.517712l 0.826427, -0.517712l 0.826427, -0.517712l 0.826427, -0.517712l 0.826427, -0.517712l 0.826427, -0.517712l 0.826427, -0.517712l 0.826427, -0.517712l 0.826427, -0.517712l 0.826427,
 -0.517712l 0.826427, -0.517712l 0.826427, -0.517712l 0.826427, -0.517712l 0.826427, -0.517712" fill="none" stroke="#000066" stroke-width="2"/>
<path d="M58.0193,312.32l 0.826427, -2.29725l 0.826427, -2.14509l 0.826427, -2.05092l 0.826427, -1.98532l 0.826427, -1.93626l 0.826427, -1.89778l 0.826427, -1.86656l 0.826427, -1.84057l 0.826427, -1.8185l 0.826427, -1.79944l 0.826427, -1.78278l
 0.826427, -1.76804l 0.826427, -1.75489l 0.826427, -1.74306l 0.826427, -1.73234l 0.826427, -1.72256l 0.826427, -1.7136l 0.826427, -1.70536l 0.826427, -1.69773l 0.826427, -1.69064l 0.826427, -1.68404l 0.826427, -1.67787l 0.826427, -1.67209l 0.826427,
 -1.66666l 0.826427, -1.66154l 0.826427, -1.6567l 0.826427, -1.65212l 0.826427, -1.64778l 0.826427, -1.64366l 0.826427, -1.63974l 0.826427, -1.636l 0.826427, -1.63243l 0.826427, -1.62902l 0.826427, -1.62575l 0.826427, -1.62263l 0.826427, -1.61962l
 0.826427, -1.61674l 0.826427, -1.61397l 0.826427, -1.6113l 0.826427, -1.60873l 0.826427, -1.60625l 0.826427, -1.60386l 0.826427, -1.60155l 0.826427, -1.59932l 0.826427, -1.59716l 0.826427, -1.59506l 0.826427, -1.59304l 0.826427, -1.59107l 0.826427,
 -1.58917l 0.826427, -1.58732l 0.826427, -1.58552l 0.826427, -1.58378l 0.826427, -1.58208l 0.826427, -1.58043l 0.826427, -1.57883l 0.826427, -1.57726l 0.826427, -1.57574l 0.826427, -1.57426l 0.826427, -1.57281l 0.826427, -1.5714l 0.826427, -1.57002l
 0.826427, -1.56868l 0.826427, -1.56736l 0.826427, -1.56608l 0.826427, -1.56483l 0.826427, -1.5636l 0.826427, -1.5624l 0.826427, -1.56123l 0.826427, -1.56008l 0.826427, -1.55896l 0.826427, -1.55786l 0.826427, -1.55678l 0.826427, -1.55573l 0.826427,
 -1.5547l 0.826427, -1.55368l 0.826427, -1.55269l 0.826427, -1.55171l 0.826427, -1.55076l 0.826427, -1.54982l 0.826427, -1.5489l 0.826427, -1.54799l 0.826427, -1.54711l 0.826427, -1.54623l 0.826427, -1.54538l 0.826427, -1.54454l 0.826427, -1.54371l
 0.826427, -1.5429l 0.826427, -1.5421l 0.826427, -1.54131l 0.826427, -1.54054l 0.826427, -1.53978l 0.826427, -1.53903l 0.826427, -1.53829l 0.826427, -1.53757l 0.826427, -1.53686l 0.826427, -1.53615l 0.826427, -1.53546l 0.826427, -1.53478l 0.826427,
 -1.53411l 0.826427, -1.53345l 0.826427, -1.5328l 0.826427, -1.53216l 0.826427, -1.53153l 0.826427, -1.5309l 0.826427, -1.53029l 0.826427, -1.52968l 0.826427, -1.52909l 0.826427, -1.5285l 0.826427, -1.52792l 0.826427, -1.52734l 0.826427, -1.52678l
 0.826427, -1.52622l 0.826427, -1.52567l 0.826427, -1.52512l 0.826427, -1.52459l 0.826427, -1.52406l 0.826427, -1.52354l 0.826427, -1.52302l 0.826427, -1.52251l 0.826427, -1.52201l 0.826427, -1.52151l 0.826427, -1.52102l 0.826427, -1.52053l 0.826427,
 -1.52005l 0.826427, -1.51958l 0.826427, -1.51911l 0.826427, -1.51865l 0.826427, -1.51819l 0.826427, -1.51774l 0.826427, -1.51729l 0.826427, -1.51685l 0.826427, -1.51641l 0.826427, -1.51598l 0.826427, -1.51555l 0.826427, -1.51513l 0.826427, -1.51471l
 0.826427, -1.5143l 0.826427, -1.51389l 0.826427, -1.51349l 0.826427, -1.51309l 0.826427, -1.51269l 0.826427, -1.5123l 0.826427, -1.51191l 0.826427, -1.51153l 0.826427, -1.51115l 0.826427, -1.51077l 0.826427, -1.5104l 0.826427, -1.51003l 0.826427,
 -1.50967l 0.826427, -1.50931l 0.826427, -1.50895l 0.826427, -1.5086l 0.826427, -1.50825l 0.826427, -1.5079l 0.826427, -1.50756l 0.826427, -1.50722l 0.826427, -1.50688l 0.826427, -1.50654l 0.826427, -1.50621l 0.826427, -1.50589l 0.826427, -1.50556l
 0.826427, -1.50524l 0.826427, -1.50492l 0.826427, -1.5046l 0.826427, -1.50429l 0.826427, -1.50398l 0.826427, -1.50367l 0.826427, -1.50337l 0.826427, -1.50307l 0.826427, -1.50277l 0.826427, -1.50247l 0.826427, -1.50218l 0.826427, -1.50188l 0.826427,
 -1.5016l 0.686579, -1.24726" fill="none" stroke="#00ff00" stroke-width="2"/>
<rect x="57.1929" y="35.4568" width="113.386" height="53.1852" fill="white"/>
<path d="M57.1929,88.6419h 113.386" fill="none" stroke="black"/>
<path d="M170.579,88.6419v -53.1852" fill="none" stroke="black"/>
<path d="M170.579,35.4568h -113.386" fill="none" stroke="black"/>
<path d="M57.1929,35.4568v 53.1852" fill="none" stroke="black"/>
<text xml:space="preserve" x="84.8757" y="54.0384" fill="black" font-size="21.3743" font-family="Helvetica">sqrt</text>
<path d="M61.4449,48.7531h 19.8425" fill="none" stroke="#000066" stroke-width="2"/>
<text xml:space="preserve" x="84.8757" y="80.5836" fill="black" font-size="21.3743" font-family="Helvetica">Sup</text>
<path d="M61.4449,75.3456h 19.8425" fill="none" stroke="#00ff00" stroke-width="2"/>
<text xml:space="preserve" x="250.783" y="18.0128" fill="black" font-size="18.2432" font-family="Helvetica">Is Sqrt ?</text></svg>
